<?xml version="1.0" standalone="no"?>
<!DOCTYPE svg PUBLIC "-//W3C//DTD SVG 20010904//EN"
 "http://www.w3.org/TR/2001/REC-SVG-20010904/DTD/svg10.dtd">
<svg version="1.0" xmlns="http://www.w3.org/2000/svg"
 width="1080.000000pt" height="1080.000000pt" viewBox="0 0 1080.000000 1080.000000"
 preserveAspectRatio="xMidYMid meet">

<g transform="translate(0.000000,1080.000000) scale(0.100000,-0.100000)"
fill="#000000" stroke="none">
<path d="M5264 8164 c-31 -25 -191 -160 -355 -300 -165 -140 -304 -254 -309
-254 -6 0 -175 102 -377 226 -206 127 -373 224 -382 221 -9 -2 -396 -268 -859
-591 -464 -322 -847 -586 -852 -586 -4 0 -26 -15 -49 -34 -22 -19 -135 -100
-251 -180 -169 -118 -210 -151 -210 -169 0 -28 18 -47 43 -47 10 0 106 61 212
135 107 74 196 135 199 135 3 0 6 -301 6 -669 l0 -670 -663 -3 c-576 -3 -669
-6 -717 -20 -283 -84 -473 -259 -563 -516 -26 -76 -31 -105 -35 -222 -4 -116
-1 -148 17 -220 41 -163 141 -321 266 -423 71 -57 215 -130 305 -154 61 -17
317 -18 4715 -18 4473 0 4652 1 4714 18 281 80 490 289 567 568 14 48 18 99
18 204 0 129 -3 147 -31 233 -87 260 -287 450 -551 525 -75 21 -93 21 -853 25
l-776 3 -6 351 c-4 193 -5 353 -2 356 2 2 139 -82 304 -187 165 -105 309 -191
319 -191 11 0 25 7 32 14 34 42 40 38 -937 661 l-943 600 0 363 0 362 -26 10
c-14 6 -108 10 -210 10 -248 0 -229 21 -220 -248 6 -167 5 -204 -6 -199 -7 2
-339 212 -736 466 -398 253 -728 461 -733 461 -4 0 -34 -21 -65 -46z m1605
-1039 l1521 -969 0 -388 0 -388 -3103 0 -3104 0 -6 702 c-5 550 -4 705 6 714
6 7 383 269 835 584 512 355 830 570 840 567 10 -2 507 -306 1105 -676 650
-401 1098 -671 1112 -671 34 0 51 34 32 63 -8 12 -330 216 -716 452 -385 237
-699 434 -698 439 5 15 632 545 643 543 6 -1 696 -438 1533 -972z m301 215 c0
-159 -3 -290 -6 -290 -4 0 -65 37 -135 83 l-129 82 0 208 0 207 135 0 135 0 0
-290z m-5065 -2250 c78 -18 75 3 75 -495 l0 -444 -46 -7 c-79 -12 -145 0 -171
30 l-23 27 2 442 3 442 35 6 c53 10 81 9 125 -1z m3911 -93 c23 -27 24 -35 24
-168 l0 -139 135 0 135 0 0 164 0 165 56 7 c85 10 142 0 173 -30 l26 -26 0
-408 0 -407 -55 -8 c-74 -11 -134 -1 -168 28 -27 23 -27 25 -30 164 l-4 141
-134 0 -134 0 0 -164 0 -164 -64 -7 c-79 -8 -138 7 -165 42 -20 25 -21 37 -21
429 l0 403 23 4 c12 3 57 4 100 3 73 -1 81 -3 103 -29z m-4228 -2 c7 -14 12
-48 12 -76 0 -40 -5 -55 -25 -74 -24 -25 -27 -25 -190 -25 l-165 0 0 -65 0
-65 160 0 160 0 10 -26 c17 -44 12 -119 -9 -145 -18 -23 -25 -24 -170 -27
l-151 -3 0 -70 0 -69 181 0 180 0 16 -37 c21 -50 12 -121 -17 -145 -20 -16
-47 -18 -276 -18 l-254 0 -38 34 -37 34 -3 349 c-2 316 -1 351 15 383 33 65
56 70 339 70 l251 0 11 -25z m2239 -28 c22 -21 27 -37 31 -101 l5 -76 92 0 92
0 13 -44 c14 -52 7 -97 -22 -122 -15 -14 -40 -20 -99 -23 l-79 -3 0 -124 c0
-115 1 -124 21 -135 22 -11 122 -14 139 -4 14 9 40 -49 40 -89 0 -45 -39 -92
-88 -106 -98 -27 -237 -2 -296 53 -61 58 -67 97 -64 467 l3 324 25 8 c14 4 56
6 94 4 57 -3 72 -8 93 -29z m-1210 -132 c113 -51 183 -152 183 -264 0 -60 -24
-93 -77 -108 -21 -6 -110 -21 -198 -34 -88 -12 -164 -26 -169 -30 -5 -5 5 -21
23 -38 58 -55 172 -62 286 -20 28 11 53 19 58 19 15 0 47 -66 47 -97 0 -43
-40 -87 -98 -110 -36 -14 -75 -18 -172 -18 -119 0 -128 1 -191 31 -84 40 -133
90 -172 173 -28 59 -31 76 -32 161 0 67 5 110 18 147 20 57 87 139 141 172 92
57 248 64 353 16z m753 19 c73 -22 110 -62 110 -119 0 -27 -7 -51 -20 -68 -20
-25 -21 -26 -66 -10 -98 33 -202 3 -241 -70 -24 -44 -22 -143 2 -184 40 -68
160 -96 249 -59 35 14 36 14 61 -15 18 -22 25 -42 25 -70 0 -54 -13 -75 -63
-101 -36 -20 -57 -23 -147 -23 -130 0 -205 25 -281 93 -151 136 -155 396 -7
539 91 88 250 125 378 87z m1246 -7 c48 -25 66 -84 45 -141 -8 -20 -19 -26
-58 -31 -26 -3 -75 -12 -108 -18 l-60 -12 -3 -243 -2 -243 -28 -10 c-15 -6
-60 -9 -99 -7 -59 3 -77 8 -95 26 -23 22 -23 25 -23 298 l0 276 36 32 c85 79
306 119 395 73z m639 -15 c34 -16 79 -46 99 -67 51 -51 93 -142 102 -222 19
-186 -77 -345 -238 -394 -95 -29 -227 -23 -308 13 -71 32 -135 95 -168 166
-24 52 -27 68 -27 172 0 97 4 123 22 162 28 59 95 134 145 159 113 58 263 62
373 11z m1802 -7 c118 -59 179 -154 190 -300 10 -130 -39 -251 -131 -324 -86
-68 -252 -90 -379 -51 -84 26 -164 96 -204 178 -25 52 -28 67 -28 167 0 100 3
115 29 172 64 139 192 208 366 198 72 -4 96 -10 157 -40z m798 21 c65 -20 137
-68 156 -102 11 -22 14 -85 13 -328 0 -263 -2 -306 -17 -339 -26 -57 -91 -122
-146 -146 -149 -64 -380 -46 -451 36 -29 33 -32 41 -28 85 3 31 13 57 25 69
19 19 20 19 69 -2 60 -27 184 -37 238 -19 48 15 76 46 76 83 0 24 -3 28 -17
21 -10 -4 -56 -9 -103 -12 -150 -7 -250 49 -306 170 -26 56 -29 74 -29 163 1
82 5 109 23 151 41 92 132 160 245 184 57 12 191 5 252 -14z m710 13 c115 -21
198 -84 224 -168 6 -23 11 -117 11 -238 0 -188 -1 -202 -21 -227 -47 -60 -163
-96 -307 -96 -217 0 -331 79 -332 228 0 100 38 161 124 197 32 13 221 43 284
45 19 0 14 35 -9 56 -32 29 -173 32 -257 6 l-63 -20 -20 31 c-30 49 -25 103
11 137 28 26 45 32 155 54 42 8 144 6 200 -5z m781 0 c59 -15 84 -48 84 -108
0 -25 -4 -52 -8 -59 -5 -6 -44 -17 -88 -22 -43 -6 -94 -15 -111 -21 l-33 -11
0 -243 0 -244 -46 -7 c-77 -11 -142 0 -172 30 l-27 26 0 263 c0 306 -1 304
105 351 108 49 216 65 296 45z"/>
<path d="M2600 4673 c-33 -17 -80 -87 -67 -99 7 -7 219 27 230 36 5 4 -4 22
-20 39 -36 41 -92 50 -143 24z"/>
<path d="M5206 4644 c-34 -35 -49 -94 -43 -169 6 -79 29 -123 74 -142 93 -38
164 28 166 156 1 125 -36 181 -123 181 -38 0 -53 -5 -74 -26z"/>
<path d="M6998 4643 c-45 -50 -61 -141 -38 -224 22 -79 95 -117 163 -84 48 23
72 78 71 169 -1 115 -40 166 -124 166 -38 0 -51 -5 -72 -27z"/>
<path d="M7832 4654 c-12 -8 -29 -28 -37 -44 -17 -32 -20 -126 -6 -163 24 -62
99 -91 165 -63 l36 15 0 129 c0 109 -3 131 -16 136 -31 12 -120 6 -142 -10z"/>
<path d="M8680 4428 c-60 -5 -78 -11 -92 -28 -24 -29 -23 -36 8 -67 23 -23 31
-25 89 -21 35 2 67 7 70 10 3 3 5 30 3 59 l-3 54 -75 -7z"/>
<path d="M1140 3643 c0 -5 -16 -96 -35 -203 -43 -242 -43 -240 -6 -240 34 0
27 -21 71 230 17 96 33 185 35 198 5 20 1 22 -30 22 -19 0 -35 -3 -35 -7z"/>
<path d="M1292 3638 c-21 -21 -14 -57 14 -70 23 -11 29 -10 45 11 17 21 18 26
6 45 -17 25 -47 32 -65 14z"/>
<path d="M1662 3603 c-6 -27 -14 -70 -17 -96 -7 -45 -8 -47 -25 -32 -62 56
-184 25 -226 -57 -20 -39 -20 -117 0 -156 30 -59 127 -83 182 -47 21 14 24 14
24 0 0 -10 10 -15 30 -15 17 0 30 4 30 8 0 9 68 398 74 425 3 13 -3 17 -29 17
-32 0 -34 -2 -43 -47z m-63 -189 c25 -32 27 -64 6 -104 -52 -100 -190 -42
-155 64 15 45 44 66 91 66 29 0 43 -6 58 -26z"/>
<path d="M2416 3633 c-2 -10 -10 -53 -17 -96 -11 -73 -13 -77 -30 -61 -42 38
-129 35 -183 -7 -82 -64 -78 -212 6 -255 39 -20 102 -20 134 1 21 14 24 14 24
0 0 -10 10 -15 30 -15 17 0 30 5 30 13 0 6 18 108 38 225 l38 212 -32 0 c-23
0 -34 -5 -38 -17z m-67 -219 c25 -32 27 -64 6 -104 -26 -50 -87 -66 -132 -35
-42 29 -36 117 10 150 36 25 92 19 116 -11z"/>
<path d="M4812 3638 c-21 -21 -14 -57 14 -70 23 -11 29 -10 45 11 17 21 18 26
6 45 -17 25 -47 32 -65 14z"/>
<path d="M5978 3639 c-27 -15 -23 -57 7 -71 21 -9 28 -8 45 7 24 22 25 38 4
59 -18 18 -32 20 -56 5z"/>
<path d="M8920 3642 c0 -4 -16 -97 -35 -207 -19 -110 -35 -208 -35 -217 0 -13
8 -18 29 -18 34 0 34 1 51 110 18 110 31 130 86 130 54 0 60 -18 40 -128 -9
-53 -16 -101 -16 -105 0 -5 15 -7 33 -5 l32 3 17 95 c10 52 15 109 13 126 -10
59 -74 91 -138 69 -20 -7 -37 -11 -37 -10 0 2 7 39 15 82 8 43 15 79 15 81 0
1 -16 2 -35 2 -19 0 -35 -3 -35 -8z"/>
<path d="M450 3597 c-98 -27 -164 -113 -164 -212 0 -107 79 -186 187 -187 60
-1 130 27 163 63 18 20 18 21 -6 39 -24 18 -26 18 -45 1 -55 -50 -135 -57
-184 -15 -98 82 -32 254 97 254 50 0 79 -13 107 -47 l21 -25 24 20 25 20 -21
28 c-41 56 -128 82 -204 61z"/>
<path d="M8180 3555 c-5 -14 -10 -33 -10 -41 0 -8 -10 -14 -24 -14 -16 0 -26
-7 -30 -22 -9 -35 -8 -38 20 -38 19 0 24 -4 20 -17 -3 -10 -10 -47 -16 -83
-18 -102 6 -139 90 -143 44 -1 45 -1 54 29 6 19 2 22 -33 28 -22 3 -43 11 -47
17 -3 6 -1 46 6 89 l12 79 47 3 c42 3 46 5 49 31 3 26 1 27 -38 27 l-42 0 4
38 c3 34 1 37 -24 40 -22 3 -30 -2 -38 -23z"/>
<path d="M807 3495 c-64 -22 -98 -64 -112 -137 -9 -45 22 -119 59 -143 32 -21
109 -22 141 -1 22 15 25 15 25 1 0 -10 10 -15 28 -15 l29 0 22 133 c12 72 25
140 27 150 4 14 -1 17 -30 17 -25 0 -36 -4 -36 -15 0 -19 -5 -19 -33 -1 -35
21 -79 26 -120 11z m116 -87 c43 -57 -7 -148 -82 -148 -68 0 -100 64 -66 130
20 39 42 50 89 47 29 -1 44 -9 59 -29z"/>
<path d="M1872 3500 c-41 -9 -89 -53 -108 -97 -51 -119 45 -238 160 -198 25 9
42 11 44 5 6 -18 60 -11 66 8 7 25 46 249 46 267 0 20 -58 21 -66 0 -5 -12
-10 -13 -32 -1 -40 20 -73 24 -110 16z m98 -80 c51 -51 5 -160 -68 -160 -78 0
-110 85 -56 149 21 25 33 31 65 31 26 0 46 -7 59 -20z"/>
<path d="M3301 3500 c-74 -18 -125 -83 -125 -162 0 -109 115 -171 227 -124 66
27 39 75 -28 51 -22 -7 -52 -11 -68 -8 -26 5 -67 45 -67 64 0 5 49 9 110 9
108 0 110 0 116 24 13 51 -46 146 -91 146 -7 0 -19 2 -27 4 -7 2 -28 0 -47 -4z
m79 -70 c39 -39 27 -50 -55 -50 -76 0 -85 4 -62 32 32 40 86 49 117 18z"/>
<path d="M3973 3499 c-18 -3 -40 -12 -48 -19 -12 -10 -15 -9 -15 4 0 13 -7 17
-27 14 -28 -3 -28 -4 -60 -178 -41 -225 -41 -230 -4 -230 32 0 35 6 47 97 6
51 7 52 29 37 92 -60 203 -15 236 96 9 31 9 49 0 80 -23 78 -83 115 -158 99z
m74 -85 c22 -22 25 -32 20 -67 -7 -54 -44 -87 -96 -87 -60 0 -92 51 -71 115
22 67 98 88 147 39z"/>
<path d="M4335 3504 c-5 -1 -22 -5 -37 -8 -67 -15 -127 -109 -114 -180 8 -42
49 -94 85 -108 59 -22 181 3 181 37 0 27 -25 34 -68 19 -24 -8 -54 -11 -68 -8
-23 6 -64 47 -64 65 0 5 49 9 109 9 105 0 109 1 115 23 8 34 -10 90 -38 116
-23 21 -79 41 -101 35z m49 -75 c47 -37 35 -49 -49 -49 -79 0 -94 11 -57 42
37 33 70 35 106 7z"/>
<path d="M5021 3500 c-74 -18 -125 -83 -125 -162 0 -109 115 -171 227 -124 66
27 39 75 -28 51 -22 -7 -52 -11 -68 -8 -26 5 -67 45 -67 64 0 5 49 9 110 9
108 0 110 0 116 24 13 51 -46 146 -91 146 -7 0 -19 2 -27 4 -7 2 -28 0 -47 -4z
m79 -70 c39 -39 27 -50 -55 -50 -76 0 -85 4 -62 32 32 40 86 49 117 18z"/>
<path d="M5377 3495 c-21 -7 -37 -9 -37 -3 0 5 -15 8 -32 6 l-33 -3 -22 -125
c-30 -169 -30 -170 6 -170 28 0 30 3 40 55 6 30 16 80 22 110 11 60 27 75 77
75 52 0 57 -19 39 -123 -22 -123 -23 -119 15 -115 l32 3 18 95 c10 52 15 109
13 126 -10 59 -74 91 -138 69z"/>
<path d="M5701 3500 c-76 -18 -125 -77 -125 -154 -1 -58 16 -92 66 -129 53
-39 193 -12 193 37 0 30 -30 43 -53 23 -11 -10 -35 -17 -60 -17 -32 0 -45 6
-61 26 -29 37 -27 85 5 123 21 25 33 31 67 31 27 0 48 -7 63 -21 19 -18 25
-19 43 -7 26 16 27 30 4 50 -41 36 -92 49 -142 38z"/>
<path d="M6181 3500 c-102 -24 -156 -156 -101 -245 34 -55 123 -75 176 -40 21
14 24 14 24 0 0 -10 10 -15 30 -15 17 0 30 1 30 3 0 2 11 66 25 143 14 76 25
142 25 147 0 4 -14 7 -31 7 -22 0 -32 -5 -36 -20 -5 -19 -6 -19 -32 -1 -33 24
-67 30 -110 21z m99 -82 c29 -32 27 -89 -6 -127 -21 -25 -33 -31 -65 -31 -54
0 -79 27 -79 84 0 33 6 49 26 70 35 34 94 36 124 4z"/>
<path d="M6763 3499 c-18 -3 -40 -12 -49 -19 -12 -11 -15 -11 -12 1 2 10 -6
14 -27 14 l-30 0 -32 -175 c-41 -226 -41 -230 -4 -230 31 0 34 5 47 93 5 39 9
47 23 41 67 -29 90 -33 127 -23 80 22 133 107 119 191 -13 77 -84 124 -162
107z m76 -85 c31 -39 28 -89 -8 -125 -49 -49 -130 -34 -145 27 -9 34 10 90 37
109 36 25 92 19 116 -11z"/>
<path d="M7085 3495 c-110 -38 -148 -184 -69 -262 40 -41 113 -48 162 -17 19
13 22 13 22 -1 0 -10 10 -15 28 -15 l28 0 23 133 c12 72 25 140 27 150 4 14
-1 17 -30 17 -25 0 -36 -4 -36 -15 0 -19 -5 -19 -33 -1 -35 22 -79 25 -122 11z
m107 -72 c25 -28 30 -60 18 -98 -15 -44 -44 -65 -91 -65 -43 0 -79 35 -79 77
0 31 25 79 47 92 29 17 88 13 105 -6z"/>
<path d="M7691 3499 c-98 -21 -154 -146 -107 -238 30 -58 127 -82 182 -46 21
14 24 14 24 0 0 -10 10 -15 30 -15 17 0 30 3 30 8 0 4 11 70 25 146 14 77 25
141 25 143 0 2 -16 3 -35 3 -29 0 -35 -4 -35 -22 0 -20 -1 -20 -19 -4 -26 23
-78 34 -120 25z m98 -85 c25 -32 27 -64 6 -104 -52 -100 -190 -42 -155 64 15
45 44 66 91 66 29 0 43 -6 58 -26z"/>
<path d="M9321 3500 c-49 -12 -83 -40 -109 -93 -83 -165 140 -291 261 -147 49
57 47 136 -4 194 -16 19 -42 37 -57 40 -15 4 -34 8 -42 10 -8 2 -30 0 -49 -4z
m94 -85 c36 -35 34 -88 -4 -126 -39 -39 -91 -40 -128 -3 -22 22 -25 32 -20 67
11 80 99 116 152 62z"/>
<path d="M9683 3499 c-93 -19 -150 -116 -121 -205 23 -68 107 -103 182 -74 35
13 35 -12 1 -45 -33 -33 -90 -34 -138 -1 -35 24 -36 24 -52 6 -24 -27 -14 -44
40 -70 36 -17 58 -21 101 -18 104 9 133 50 164 238 11 69 23 135 25 148 5 20
2 22 -30 22 -29 0 -35 -4 -35 -22 0 -20 -1 -20 -19 -4 -25 23 -78 34 -118 25z
m96 -85 c30 -38 27 -80 -8 -115 -72 -71 -185 -3 -140 84 24 45 41 57 85 57 34
0 47 -5 63 -26z"/>
<path d="M10052 3500 c-41 -9 -89 -53 -108 -97 -51 -119 45 -238 160 -198 25
9 42 11 44 5 6 -18 60 -11 66 8 6 20 46 254 46 271 0 17 -60 14 -66 -4 -5 -12
-10 -13 -32 -1 -40 20 -73 24 -110 16z m98 -80 c30 -30 27 -90 -6 -129 -21
-25 -34 -31 -64 -31 -77 0 -108 85 -54 149 21 25 33 31 65 31 26 0 46 -7 59
-20z"/>
<path d="M1265 3478 c-10 -47 -45 -253 -45 -266 0 -9 10 -12 32 -10 l32 3 22
125 c31 169 31 170 -6 170 -23 0 -31 -5 -35 -22z"/>
<path d="M2705 3478 c-27 -124 -31 -204 -12 -229 28 -37 96 -51 138 -29 28 16
25 -20 -4 -48 -31 -30 -78 -28 -115 3 l-29 24 -22 -23 -22 -23 31 -26 c80 -68
210 -37 239 57 6 17 19 85 31 151 11 66 22 130 25 143 5 19 2 22 -29 22 l-34
0 -18 -96 c-18 -106 -36 -134 -81 -134 -56 0 -65 22 -47 115 20 107 19 115
-16 115 -23 0 -31 -5 -35 -22z"/>
<path d="M3555 3429 c41 -81 44 -69 -43 -168 l-54 -61 39 0 c33 0 43 6 84 52
l47 52 26 -52 c24 -48 29 -52 61 -52 19 0 35 3 35 6 0 4 -18 38 -39 76 l-40
68 60 69 c32 38 59 72 59 75 0 3 -16 6 -35 6 -28 0 -40 -8 -72 -45 -20 -25
-40 -45 -43 -45 -3 0 -16 20 -28 45 -20 41 -25 45 -57 45 l-35 0 35 -71z"/>
<path d="M4565 3488 c-3 -7 -14 -67 -25 -133 -12 -66 -23 -128 -26 -137 -4
-15 1 -18 29 -18 l35 0 18 97 c20 113 41 143 99 143 32 0 35 2 35 30 0 27 -3
30 -31 30 -17 0 -40 -5 -52 -11 -16 -9 -22 -9 -25 0 -5 15 -52 14 -57 -1z"/>
<path d="M4785 3478 c-12 -59 -45 -245 -45 -260 0 -13 8 -18 29 -18 35 0 33
-4 60 152 27 151 27 148 -9 148 -23 0 -31 -5 -35 -22z"/>
<path d="M5931 3383 c-12 -65 -24 -133 -28 -151 -5 -33 -5 -33 28 -30 l34 3
21 118 c12 65 24 131 28 148 5 27 4 29 -28 29 l-34 0 -21 -117z"/>
<path d="M7395 3488 c-10 -31 -51 -279 -47 -283 3 -3 18 -5 33 -5 30 0 29 -3
50 124 14 84 40 116 94 116 32 0 35 2 35 30 0 27 -3 30 -31 30 -17 0 -40 -5
-52 -11 -16 -9 -22 -9 -25 0 -5 15 -52 14 -57 -1z"/>
<path d="M8385 3488 c-9 -30 -25 -148 -25 -187 0 -86 85 -127 182 -89 40 15
64 62 82 159 23 122 22 129 -14 129 -26 0 -30 -4 -36 -37 -27 -153 -34 -178
-50 -190 -26 -19 -68 -16 -88 6 -16 17 -16 25 -2 107 21 116 21 114 -14 114
-17 0 -32 -6 -35 -12z"/>
<path d="M10350 3493 c0 -5 -11 -69 -25 -143 -14 -74 -25 -139 -25 -143 0 -5
15 -7 32 -5 l33 3 17 95 c20 105 44 140 97 140 28 0 41 15 41 46 0 17 -52 19
-83 3 -16 -9 -22 -9 -25 0 -4 12 -62 16 -62 4z"/>
</g>
</svg>
